<svg xmlns="http://www.w3.org/2000/svg" width="32" height="32" viewBox="0 0 32 32">
  <defs>
    <linearGradient id="bg" x1="0" y1="0" x2="1" y2="1">
      <stop offset="0%" stop-color="#1c1f24"/>
      <stop offset="100%" stop-color="#0e1012"/>
    </linearGradient>
  </defs>
  <rect width="32" height="32" rx="6" fill="url(#bg)"/>
  <path d="M7 18c-2 0-3.5 1.3-3.8 3l-.5 2.7c-.1.8.5 1.4 1.2 1.4h26c.8 0 1.4-.8 1.2-1.5l-.9-4.2c-.3-1.5-1.8-2.7-3.4-2.7H7z" fill="#15171b" stroke="#333943" stroke-width="0.3"/>
  <rect x="8.5" y="17.2" width="5.5" height="1.3" rx="0.6" fill="#566171"/>
  <path d="M14 16.2c.5-2.5 2.8-4.4 5.4-4.4h3.8c1 0 1.8.8 1.8 1.8v.5" fill="none" stroke="#a0aaba" stroke-width="0.4" stroke-linecap="round"/>
  <ellipse cx="23.5" cy="16" rx="0.8" ry="0.6" fill="#007afc" opacity="0.9"/>
  <ellipse cx="23.5" cy="16" rx="0.3" ry="0.25" fill="#fff" opacity="0.6"/>
  <circle cx="23" cy="23.5" r="2.5" fill="#15171b" stroke="#566171" stroke-width="0.3"/>
  <circle cx="23" cy="23.5" r="0.6" fill="#566171"/>
  <circle cx="9.5" cy="23.5" r="2.5" fill="#15171b" stroke="#566171" stroke-width="0.3"/>
  <circle cx="9.5" cy="23.5" r="0.6" fill="#566171"/>
  <rect x="13.2" y="20.4" width="6" height="0.6" rx="0.2" fill="#333943"/>
</svg>
